<?xml version="1.0" standalone="no"?>
<!DOCTYPE svg PUBLIC "-//W3C//DTD SVG 20010904//EN"
 "http://www.w3.org/TR/2001/REC-SVG-20010904/DTD/svg10.dtd">
<svg version="1.0" xmlns="http://www.w3.org/2000/svg"
 width="327.000000pt" height="327.000000pt" viewBox="0 0 327.000000 327.000000"
 preserveAspectRatio="xMidYMid meet">
<metadata>
Created by potrace 1.14, written by Peter Selinger 2001-2017
</metadata>
<g transform="translate(0.000000,327.000000) scale(0.100000,-0.100000)"
fill="#000000" stroke="none">
<path d="M34 3262 l-32 -3 2 -187 1 -187 762 -2 763 -2 0 189 c0 105 -3 190
-7 191 -30 2 -1465 3 -1489 1z m784 -190 l2 -48 -50 -3 c-53 -2 -52 -4 -52 59
0 17 1 32 1 35 1 3 23 5 50 5 l48 0 1 -48z"/>
<path d="M1733 3257 c-4 -6 -7 -1475 -4 -1518 1 -4 343 -6 761 -6 691 0 760 1
761 16 3 41 5 917 2 927 -3 8 -139 11 -477 11 l-472 0 -1 -184 c-1 -157 1
-185 14 -190 8 -3 142 -6 297 -7 l281 -1 2 -96 2 -96 -395 0 -394 0 -1 191
c-2 351 0 568 4 573 3 2 261 5 573 6 l569 2 0 177 c0 98 -2 183 -5 190 -4 10
-153 13 -758 13 -415 0 -756 -4 -759 -8z"/>
<path d="M2 2504 c0 -163 2 -185 16 -192 9 -4 352 -7 762 -6 l745 1 3 190 2
190 -763 0 -764 0 -1 -183z m814 -4 c0 -42 -2 -45 -30 -50 -17 -3 -38 -4 -47
-2 -18 4 -27 40 -21 80 3 21 8 23 50 20 l47 -3 1 -45z"/>
<path d="M18 2112 c-14 -3 -16 -28 -15 -191 l0 -188 764 0 763 0 0 188 c0 144
-3 189 -12 190 -40 2 -1487 3 -1500 1z m798 -189 l-1 -48 -50 -2 -50 -1 2 41
c1 23 2 45 2 50 1 4 23 7 50 7 l49 0 -2 -47z"/>
<path d="M2 1059 l1 -477 467 0 c257 0 472 3 477 7 5 3 9 88 9 189 l-1 182
-297 0 -298 0 0 99 0 99 396 -2 397 -1 -1 -378 c0 -208 -3 -382 -7 -385 -4 -4
-262 -7 -573 -7 l-567 0 -2 -188 c-1 -135 2 -187 10 -188 42 -5 1501 -3 1508
2 5 3 8 312 7 765 l-3 759 -761 0 -762 0 0 -476z"/>
<path d="M1729 1508 c-1 -36 -1 -301 0 -330 l1 -23 747 2 c412 1 755 2 763 2
13 1 15 27 15 186 0 102 -2 186 -5 186 -3 1 -346 2 -762 3 l-758 1 -1 -27z
m809 -160 l3 -48 -50 0 -50 0 1 48 2 47 46 0 45 0 3 -47z"/>
<path d="M1730 948 c-1 -19 -1 -277 -1 -324 l1 -42 759 0 c554 0 761 4 764 12
2 6 3 90 3 186 l-1 175 -763 3 c-606 2 -762 0 -762 -10z m810 -178 l0 -50 -49
2 -50 3 2 47 1 48 48 0 48 0 0 -50z"/>
<path d="M1729 330 c-1 -56 0 -311 0 -320 1 -8 1515 -7 1521 1 4 6 5 352 1
369 0 3 -343 5 -761 5 l-760 0 -1 -55z m811 -135 l0 -51 -45 0 c-48 0 -51 4
-54 60 -1 40 2 43 54 42 l45 -1 0 -50z"/>
</g>
</svg>
