<svg width="2160" height="2840" viewBox="0 0 2160 2840" fill="none" xmlns="http://www.w3.org/2000/svg">
<path d="M901.183 1892.08H498.585L297.321 2240.93L250.283 2159.42L451.582 1810.56H854.145L901.183 1892.08ZM297.321 2198.89L486.463 1871.04H864.782L841.987 1831.57H463.669L274.527 2159.42L297.321 2198.89ZM1197.65 1912.94L1150.62 1994.45L949.316 1645.6H546.754L593.792 1564.08H996.354L1197.62 1912.94H1197.65ZM1150.62 1952.41L1173.37 1912.94L984.233 1585.09H605.914L583.154 1624.55H961.438L1150.62 1952.41ZM1410.97 1789.7L1209.67 2138.56H1115.63L1316.89 1789.7L1115.63 1440.84H1209.67L1410.97 1789.7ZM1197.55 2117.55L1386.72 1789.7L1197.55 1461.85H1151.99L1341.14 1789.7L1151.99 2117.55H1197.55ZM1268.76 1789.7L1221.76 1871.21L1020.46 1522.35H617.894L664.932 1440.84H1067.49L1268.76 1789.7ZM1221.76 1829.17L1244.51 1789.7L1055.37 1461.85H677.054L654.259 1501.31H1032.58L1221.72 1829.17H1221.76ZM1683.37 1071.12L1636.33 1152.63H1233.77L1032.47 803.775L1079.47 722.263L1280.77 1071.12H1683.34H1683.37ZM1624.21 1131.63L1647.01 1092.16H1268.69L1079.51 764.345L1056.75 803.81L1245.93 1131.66H1624.21V1131.63ZM1553.21 1789.74L1351.95 2138.59H1257.87L1459.17 1789.74L1257.87 1440.88H1351.91L1553.21 1789.74ZM1339.79 2117.59L1528.93 1789.74L1339.76 1461.88H1294.2L1483.38 1789.74L1294.2 2117.59H1339.76H1339.79ZM1695.42 1789.74L1494.16 2138.59H1400.12L1601.42 1789.74L1400.12 1440.88H1494.19L1695.46 1789.74H1695.42ZM1482 2117.59L1671.14 1789.74L1482 1461.88H1436.45L1625.59 1789.74L1436.45 2117.59H1482ZM1766.53 1912.98L1565.26 2261.83H1162.67L1115.66 2180.32H1518.23L1719.49 1831.46L1766.49 1912.98H1766.53ZM1553.14 2240.83L1742.28 1912.98L1719.52 1873.51L1530.38 2201.36H1152.06L1174.82 2240.83H1553.14ZM1043.43 2138.59H640.865L439.566 2487.45L392.528 2405.94L593.827 2057.08H996.39L1043.43 2138.59ZM439.566 2445.4L628.708 2117.55H1007.03L984.268 2078.09H605.949L416.772 2405.94L439.566 2445.4ZM1837.63 2036.22L1636.33 2385.07H1233.77L1186.73 2303.56H1589.3L1790.56 1954.7L1837.6 2036.22H1837.63ZM1624.21 2364.07L1813.39 2036.22L1790.59 1996.75L1601.45 2324.6H1223.13L1245.93 2364.07H1624.21ZM972.323 2015.35H569.725L368.426 2364.21L321.388 2282.7L522.652 1933.84H925.249L972.287 2015.35H972.323ZM368.461 2322.16L557.603 1994.31H935.922L913.163 1954.85H534.844L345.702 2282.7L368.461 2322.16ZM273.29 2529.18L71.9909 2878.04H-22.0499L179.249 2529.18L-22.0499 2180.32H71.9909L273.29 2529.18ZM59.8691 2857L249.046 2529.18L59.8691 2201.33H14.3154L203.457 2529.18L14.3154 2857H59.8691ZM1612.3 2673.28L1565.3 2754.8H1162.74L961.438 2405.94L1008.48 2324.43L1209.74 2673.28H1612.3ZM1553.14 2733.79L1575.9 2694.33H1197.58L1008.44 2366.47L985.682 2405.94L1174.86 2733.79H1553.18H1553.14ZM1908.77 2159.46L1707.47 2508.32H1304.91L1257.87 2426.8H1660.47L1861.77 2077.95L1908.81 2159.46H1908.77ZM1695.35 2487.31L1884.53 2159.46L1861.77 2119.99L1672.59 2447.81H1294.27L1317.03 2487.27H1695.35V2487.31ZM2323.35 1399.15H1920.79L1719.49 1748.01L1672.45 1666.49L1873.75 1317.64H2276.31L2323.32 1399.15H2323.35ZM1719.49 1705.96L1908.63 1378.14H2286.95L2264.19 1338.68H1885.87L1696.73 1666.53L1719.49 1706V1705.96ZM2323.35 2138.59H2229.31L2028.01 1789.74L2229.31 1440.88H2323.35L2122.09 1789.74L2323.35 2138.59ZM2208.18 1598.49L2286.99 1461.92H2241.43L2052.29 1789.77L2241.43 2117.62H2286.99L2097.81 1789.77L2208.18 1598.53V1598.49ZM1043.43 2180.32L842.129 2529.18L1043.43 2878.04H949.352L748.088 2529.18L949.352 2180.32H1043.43ZM817.885 2529.18L1007.03 2201.33H961.473L772.332 2529.18L961.473 2857H1007.03L817.885 2529.18ZM131.045 2529.18L-70.2189 2878.04H-164.33L36.9686 2529.18L-164.33 2180.32H-70.2542L131.009 2529.18H131.045ZM-82.376 2857L106.766 2529.18L-82.376 2201.33H-127.93L61.2121 2529.18L-127.93 2857.03H-82.376V2857ZM415.464 2529.18L214.165 2878.04H120.125L321.423 2529.18L120.125 2180.32H214.165L415.464 2529.18ZM202.044 2857L391.221 2529.18L202.044 2201.33H156.49L345.667 2529.18L156.49 2857H202.044ZM758.973 2180.29L557.674 2529.14L758.938 2878H664.897L463.598 2529.14L664.897 2180.29H758.938H758.973ZM533.43 2529.14L722.572 2201.29H677.018L487.841 2529.14L677.018 2856.96H722.572L533.43 2529.14ZM901.183 2878H807.107L605.843 2529.14L807.142 2180.29H901.183L699.884 2529.14L901.183 2878ZM675.64 2529.14L864.782 2201.29H819.264L630.122 2529.14L819.264 2856.96H864.817L675.676 2529.14H675.64ZM1126.55 2036.18L1079.51 2117.69L878.247 1768.84H475.684L522.687 1687.32H925.249L1126.55 2036.18ZM1079.51 2075.65L1102.3 2036.18L913.163 1708.36H534.844L512.085 1747.83H890.404L1079.55 2075.68L1079.51 2075.65ZM901.183 413.153H498.585L297.321 762.011L250.283 680.499L451.582 331.641H854.145L901.183 413.153ZM297.321 719.964L486.463 392.112H864.782L841.987 352.647H463.669L274.527 680.499L297.321 719.964ZM2181.11 1440.81L1979.84 1789.66L2181.11 2138.52H2087.06L1885.77 1789.66L2087.06 1440.81H2181.11ZM2099.19 2117.52H2144.74L1955.6 1789.66L2144.74 1461.81H2099.19L1910.01 1789.66L2099.19 2117.52ZM1837.6 557.258L1636.3 906.116H1233.74L1186.7 824.604H1589.26L1790.52 475.746L1837.56 557.258H1837.6ZM1624.18 885.11L1813.35 557.258L1790.56 517.793L1601.42 845.609H1223.1L1245.89 885.075H1624.18V885.11ZM557.674 1296.7L356.375 1645.56H-46.1874L-93.2255 1564.05H309.337L510.636 1215.23L557.674 1296.7ZM344.253 1624.55L533.395 1296.7L510.636 1257.24L321.459 1585.05H-56.8249L-34.0656 1624.52H344.253V1624.55ZM1043.39 659.67H640.83L439.531 1008.53L392.493 927.016L593.792 578.158H996.354L1043.39 659.67ZM439.531 966.481L628.673 638.629H1006.99L984.197 599.164H605.914L416.736 927.016L439.531 966.481ZM972.287 536.429H569.725L368.426 885.287L321.388 803.775L522.652 454.917H925.249L972.287 536.429ZM368.426 843.24L557.568 515.388H935.887L913.128 475.923H534.809L345.667 803.775L368.426 843.24ZM2181.11 1152.63H1778.54L1577.24 1501.49L1530.24 1419.98L1731.51 1071.12H2134.07L2181.11 1152.63ZM1577.24 1459.44L1766.39 1131.63H2144.71L2121.91 1092.16H1743.59L1554.45 1420.01L1577.21 1459.48L1577.24 1459.44ZM403.413 331.677L356.41 413.189H-46.1874L-210.944 127.631V-35.3932L0.850662 331.677H403.413ZM344.253 392.183L367.013 352.718H-11.3064L-189.952 43.0777V122.008L-34.0656 392.183H344.253ZM2252.21 1275.91H1849.65L1648.35 1624.77L1601.31 1543.25L1802.61 1194.4H2205.17L2252.21 1275.91ZM1648.35 1582.72L1837.53 1254.87H2215.85L2193.09 1215.4H1814.77L1625.59 1543.22L1648.35 1582.68V1582.72ZM1683.34 2550.04L1636.3 2631.56H1233.74L1032.44 2282.7L1079.44 2201.19L1280.74 2550.04H1683.3H1683.34ZM1624.18 2610.55L1646.97 2571.08H1268.65L1079.47 2243.23L1056.72 2282.7L1245.89 2610.55H1624.18ZM628.779 1420.01L427.48 1768.87H24.9175L-22.1206 1687.36H380.442L581.741 1338.5L628.779 1420.01ZM415.358 1747.87L604.535 1420.01L581.776 1380.55L392.634 1708.4H14.28L37.0392 1747.87H415.358ZM1766.49 434.053L1565.23 782.911H1162.67L1115.63 701.398H1518.19L1719.45 352.541L1766.46 434.053H1766.49ZM1553.11 761.905L1742.25 434.053L1719.49 394.588L1530.35 722.44H1152.03L1174.82 761.905H1553.14H1553.11ZM273.254 1050.29L71.9556 1399.15H-22.0853L179.214 1050.29L-22.0853 701.434H71.9556L273.254 1050.29ZM59.8338 1378.11L249.011 1050.29L59.8338 722.44H14.28L203.422 1050.29L14.28 1378.11H59.8338ZM131.045 1050.29L-70.2189 1399.15H-164.33L36.9686 1050.29L-164.33 701.398H-70.2542L131.009 1050.26L131.045 1050.29ZM-82.376 1378.11L106.766 1050.29L-82.376 722.44H-127.93L61.2121 1050.26L-127.93 1378.11H-82.376ZM1612.27 1194.4L1565.26 1275.91H1162.7L961.403 927.051L1008.44 845.539L1209.7 1194.4H1612.27ZM1553.11 1254.9L1575.87 1215.44H1197.55L1008.41 887.586L985.611 927.051L1174.79 1254.87H1553.11V1254.9ZM2038.9 1440.91L1837.6 1789.77L2038.9 2138.63H1944.82L1743.56 1789.77L1944.82 1440.91H2038.9ZM1956.98 2117.62H2002.53L1813.39 1789.77L2002.53 1461.92H1956.98L1767.84 1789.77L1956.98 2117.62ZM415.464 1050.29L214.165 1399.15H120.125L321.423 1050.29L120.125 701.434H214.165L415.464 1050.29ZM202.044 1378.11L391.221 1050.29L202.044 722.44H156.49L345.667 1050.29L156.49 1378.11H202.044ZM486.569 1173.53L285.27 1522.39H-117.292L-164.33 1440.88H238.232L439.531 1092.02L486.569 1173.53ZM273.148 1501.35L462.29 1173.53L439.531 1134.07L250.389 1461.92H-127.93L-105.171 1501.38H273.148V1501.35ZM758.973 701.398L557.674 1050.26L758.938 1399.11H664.897L463.598 1050.26L664.897 701.398H758.938H758.973ZM533.43 1050.26L722.572 722.404H677.018L487.841 1050.26L677.018 1378.07H722.572L533.43 1050.26ZM1043.39 701.398L842.094 1050.26L1043.39 1399.11H949.316L748.053 1050.26L949.316 701.398H1043.39ZM931.681 852.93L1006.99 722.404H961.438L772.296 1050.26L961.438 1378.07H1006.99L817.85 1050.26L931.681 852.93ZM1541.13 1317.57L1494.09 1399.08H1091.53L890.262 1050.22L937.301 968.709L1138.6 1317.57H1541.16H1541.13ZM1481.97 1378.07L1504.76 1338.61H1126.44L937.265 1010.79L914.506 1050.26L1103.65 1378.07H1481.97ZM901.147 1399.11H807.071L605.808 1050.26L807.107 701.398H901.147L699.848 1050.26L901.147 1399.11ZM675.605 1050.26L864.747 722.404H819.228L630.086 1050.26L819.228 1378.07H864.782L675.64 1050.26H675.605ZM1541.13 2796.49L1494.09 2878H1091.53L890.262 2529.14L937.301 2447.63L1138.6 2796.49H1541.16H1541.13ZM1481.97 2856.96L1504.76 2817.5H1126.44L937.265 2489.64L914.506 2529.11L1103.65 2856.93H1481.97V2856.96ZM2369.93 2219.33V2382.35L2300.38 2261.76H1897.82L1944.86 2180.25H2347.45L2370 2219.33H2369.93ZM2348.94 2303.88V2224.95L2335.3 2201.26H1956.98L1934.22 2240.72H2312.54L2348.97 2303.88H2348.94ZM2369.93 1972.85V2135.87L2170.19 1789.66L2217.22 1708.15L2369.93 1972.85ZM2348.94 2057.43V1978.5L2217.22 1750.23L2194.46 1789.7L2348.94 2057.47V2057.43ZM2369.93 1726.4V1889.42L2241.29 1666.46L2288.33 1584.95L2369.93 1726.4ZM2348.94 1810.95V1732.02L2288.33 1626.99L2265.57 1666.46L2348.94 1810.95ZM2369.93 1233.44V1396.74L2349.33 1360.74L2158.13 1029.39H1755.57L1802.61 947.88H2205.17L2369.93 1233.44ZM2348.94 1317.99V1239.1L2193.05 968.921H1814.73L1791.97 1008.39H2170.26L2348.9 1317.99H2348.94ZM2369.93 1443.49V1642.94L2312.4 1543.22L2369.93 1443.49ZM2348.94 1564.47V1521.97L2336.67 1543.22L2348.94 1564.47ZM2369.93 986.956V1149.98L2229.27 906.151H1826.71L1873.75 824.639H2276.31L2369.96 986.956H2369.93ZM2348.94 1071.54V992.614L2264.16 845.68H1885.84L1863.08 885.146H2241.4L2348.94 1071.54ZM2252.21 2754.8H1849.65L1760.45 2909.4H1666.37L1802.61 2673.28H2205.17L2252.21 2754.8ZM1748.33 2888.4L1837.53 2733.79H2215.85L2193.09 2694.33H1814.77L1702.77 2888.4H1748.33ZM2181.11 2631.56H1778.54L1618.24 2909.4H1524.2L1731.54 2550.04H2134.1L2181.14 2631.56H2181.11ZM1606.08 2888.4L1766.39 2610.55H2144.71L2121.91 2571.08H1743.59L1560.49 2888.4H1606.05H1606.08ZM2369.93 2465.88V2628.9L2229.27 2385.07H1826.71L1873.75 2303.56H2276.31L2369.96 2465.88H2369.93ZM2348.94 2550.47V2471.54L2264.16 2324.6H1885.84L1863.08 2364.07H2241.4L2348.94 2550.47ZM2323.32 2878.07H1920.75L1902.66 2909.44H1808.58L1873.72 2796.56H2276.28L2323.28 2878.07H2323.32ZM1890.54 2888.43L1908.63 2857.07H2286.95L2264.19 2817.6H1885.87L1844.98 2888.43H1890.54ZM2369.96 2712.4V2875.81L2349.36 2839.67L2158.17 2508.35H1755.61L1802.65 2426.84H2205.21L2369.96 2712.4ZM2348.97 2796.95V2718.02L2193.09 2447.84H1814.77L1792.01 2487.31H2170.29L2348.94 2796.91L2348.97 2796.95ZM2369.96 494.029V657.053L2170.22 310.848L2217.26 229.336L2369.96 494.029ZM2348.97 578.618V499.687L2217.26 271.382L2194.5 310.848L2348.97 578.582V578.618ZM634.857 -69.4126L427.515 289.948H24.9175L-22.1206 208.436H380.442L540.781 -69.4126H634.857ZM415.393 268.942L598.457 -48.4069H552.903L392.599 229.442H14.28L37.0392 268.907H415.358L415.393 268.942ZM1630.36 -69.4126L1577.28 22.6024L1524.16 -69.4126H1630.33H1630.36ZM1577.28 -19.4444L1594 -48.4069H1560.6L1577.32 -19.4444H1577.28ZM1772.57 -69.4126L1648.35 145.843L1601.31 64.3309L1678.49 -69.4126H1772.57ZM1648.35 103.796L1736.17 -48.4069H1690.62L1625.59 64.3309L1648.35 103.796ZM350.403 -69.4126L285.27 43.4667H-117.292L-164.33 -38.0455H238.232L256.326 -69.4126H350.403ZM273.148 22.4609L314.037 -48.3715H268.484L250.389 -17.0044H-127.93L-105.171 22.4609H273.148ZM492.612 -69.4126L356.375 166.707H-46.1874L-93.2608 85.1952H309.337L398.571 -69.4126H492.612ZM344.253 145.702L456.247 -48.4069H410.693L321.494 106.201H-56.8249L-34.0656 145.666H344.253V145.702ZM1914.78 -69.4126L1719.45 269.084L1672.42 187.572L1820.74 -69.4126H1914.78ZM1719.45 227.037L1878.42 -48.4069H1832.86L1696.69 187.572L1719.45 227.037ZM634.822 2909.4H528.659L581.741 2817.39L634.822 2909.4ZM565.025 2888.4H598.421L581.705 2859.44L564.989 2888.4H565.025ZM2369.93 247.512V410.536L2241.29 187.572L2288.33 106.059L2369.93 247.512ZM2348.94 332.066V253.135L2288.33 148.106L2265.57 187.572L2348.94 332.066ZM2369.93 -35.3932V164.055L2312.4 64.3309L2369.93 -35.3932ZM2348.94 85.5842V43.0777L2336.67 64.3309L2348.94 85.5842ZM2369.93 740.475V903.499L2300.38 782.911H1897.82L1944.86 701.398H2347.45L2370 740.475H2369.93ZM2348.94 825.028V746.098L2335.3 722.404H1956.98L1934.22 761.87H2312.54L2348.97 825.028H2348.94ZM1908.74 680.534L1707.44 1029.39H1304.88L1257.84 947.88H1660.44L1861.73 599.022L1908.77 680.534H1908.74ZM1695.32 1008.35L1884.49 680.534L1861.73 641.069L1672.56 968.921H1294.24L1317 1008.39H1695.32V1008.35ZM1197.65 434.053L1150.62 515.565L949.316 166.707H546.754L593.792 85.1952H996.354L1197.62 434.053H1197.65ZM1150.62 473.518L1173.37 434.053L984.233 106.201H605.914L583.154 145.666H961.438L1150.62 473.518ZM1268.76 310.812L1221.76 392.324L1020.46 43.4667H617.894L664.932 -38.0455H1067.49L1268.76 310.812ZM1221.76 350.278L1244.51 310.812L1055.34 -17.0044H677.018L654.224 22.4609H1032.54L1221.68 350.313L1221.76 350.278ZM1411 310.812L1209.7 659.67H1115.66L1316.93 310.812L1115.63 -38.0455H1209.67L1410.97 310.812H1411ZM1197.58 638.664L1386.76 310.812L1197.55 -17.0044H1151.99L1341.14 310.848L1151.99 638.7H1197.55L1197.58 638.664ZM332.344 454.917L285.306 536.429H-117.292L-210.944 374.148V211.088L-70.2542 454.917H332.308H332.344ZM273.184 515.424L295.943 475.958H-82.376L-189.952 289.559V368.49L-105.171 515.424H273.148H273.184ZM1126.58 557.294L1079.55 638.806L878.282 289.948H475.72L522.722 208.436H925.285L1126.58 557.294ZM1079.55 596.759L1102.34 557.294L913.163 229.442H534.844L512.085 268.907H890.404L1079.55 596.759ZM1553.21 310.812L1351.95 659.67H1257.87L1459.17 310.812L1257.84 -38.0455H1351.88L1553.18 310.812H1553.21ZM1339.79 638.664L1528.93 310.812L1339.76 -17.0044H1294.2L1483.38 310.848L1294.2 638.7H1339.76L1339.79 638.664ZM261.203 578.158L214.201 659.67H-188.397L-210.944 620.594V457.569L-141.394 578.122H261.168L261.203 578.158ZM202.044 638.664L224.803 599.199H-153.516L-189.952 536.04V614.971L-176.275 638.664H202.044ZM2181.11 -38.0455L1979.84 310.812L2181.11 659.67H2087.06L1885.77 310.812L2087.06 -38.0455H2181.11ZM1955.56 310.812L2144.71 -17.0397H2099.15L1909.97 310.812L2099.15 638.664H2144.71L1955.56 310.812ZM2323.32 659.67H2229.27L2027.98 310.812L2229.27 -38.0455H2323.32L2122.05 310.812L2323.32 659.67ZM2208.14 119.568L2286.95 -17.0044H2241.4L2052.25 310.848L2241.4 638.7H2286.95L2097.77 310.848L2208.14 119.604V119.568ZM1695.39 310.812L1494.12 659.67H1400.08L1601.38 310.812L1400.05 -38.0455H1494.12L1695.39 310.812ZM1481.97 638.664L1671.11 310.812L1481.97 -17.0044H1436.41L1625.55 310.848L1436.41 638.7H1481.97V638.664ZM2038.9 -38.0455L1837.6 310.812L2038.9 659.67H1944.82L1743.56 310.812L1944.82 -38.0455H2038.9ZM1813.35 310.812L2002.5 -17.0397H1956.94L1767.8 310.812L1956.94 638.664H2002.5L1813.35 310.812ZM-153.41 2775.66L-210.944 2875.35V2675.9L-153.41 2775.63V2775.66ZM-189.917 2796.91L-177.654 2775.66L-189.917 2754.41V2796.91ZM-82.2699 2652.42L-129.308 2733.93L-210.944 2592.48V2429.46L-82.3053 2652.42H-82.2699ZM-124.007 2682.69L-106.549 2652.42L-189.917 2507.89V2586.82L-129.308 2691.85L-124.007 2682.66V2682.69ZM-11.1651 2529.18L-58.1678 2610.69L-210.944 2346V2182.97L-11.2004 2529.18H-11.1651ZM-58.1678 2568.64L-35.4086 2529.18L-189.952 2261.41V2340.34L-58.2385 2568.61L-58.1678 2568.64ZM261.239 2057.08L214.236 2138.59H-188.397L-210.944 2099.52V1936.49L-141.394 2057.08H261.168H261.239ZM202.079 2117.59L224.838 2078.12H-153.516L-189.952 2014.96V2093.89L-176.275 2117.59H202.044H202.079ZM557.709 2775.7L480.526 2909.44H386.45L510.636 2694.18L557.674 2775.7H557.709ZM468.404 2888.43L533.466 2775.7L510.707 2736.23L422.886 2888.43H468.439H468.404ZM486.604 2652.46L338.316 2909.44H244.24L439.566 2570.94L486.604 2652.46ZM326.194 2888.43L462.326 2652.46L439.566 2612.99L280.641 2888.43H326.194ZM-82.3053 1173.5L-129.343 1255.01L-210.944 1113.59V950.532L-82.3053 1173.5ZM-124.042 1203.8L-106.584 1173.5L-189.952 1029V1107.93L-129.343 1212.96L-124.042 1203.77V1203.8ZM332.308 1933.84L285.27 2015.35H-117.292L-210.944 1853.04V1690.01L-70.2542 1933.84H332.308ZM273.148 1994.31L295.908 1954.85H-82.376L-189.917 1768.45V1847.38L-105.135 1994.31H273.184H273.148ZM-11.2004 1050.26L-58.2031 1131.77L-210.944 867.11V704.086L-11.2004 1050.29V1050.26ZM-58.2031 1089.72L-35.4439 1050.26L-189.952 782.522V861.452L-58.2385 1089.76L-58.2031 1089.72ZM-153.41 1296.74L-210.944 1396.46V1197.05L-153.41 1296.74ZM-189.917 1317.99L-177.654 1296.74L-189.917 1275.48V1318.03V1317.99ZM403.413 1810.56L356.41 1892.08H-46.1874L-210.944 1606.55V1443.57L0.850662 1810.6H403.413V1810.56ZM344.253 1871.04L367.013 1831.57H-11.3064L-189.952 1521.97V1600.9L-34.0656 1871.07H344.253V1871.04Z" fill="#3B3C3F"/>
</svg>
