<?xml version="1.0" encoding="iso-8859-1"?>
<!-- Generator: Adobe Illustrator 19.0.0, SVG Export Plug-In . SVG Version: 6.00 Build 0)  -->
<svg version="1.1" id="Layer_1" xmlns="http://www.w3.org/2000/svg" xmlns:xlink="http://www.w3.org/1999/xlink" x="0px" y="0px"
	 viewBox="0 0 508 508" style="enable-background:new 0 0 508 508;" xml:space="preserve">
<g>
	<g>
		<path d="M379.3,282.425v-59.3l41.9-41.9c5.5-5.5,5.5-14.4,0-19.9l-41.9-41.9v-59.3c0-7.8-6.3-14.1-14.1-14.1h-59.3L264,4.125
			c-5.5-5.5-14.4-5.5-19.9,0l-42,41.9h-59.3c-7.8,0-14.1,6.3-14.1,14.1v59.3l-41.9,41.9c-5.5,5.5-5.5,14.4,0,19.9l41.9,41.9v59.3
			c0,7.8,6.3,14.1,14.1,14.1h40.1l-77.4,152.7c-4.1,11.1,1.4,22.3,15.1,20.3l41.1-7.4l18.4,37.6c5.6,10.9,20.9,9.7,25.2,0.2
			l48.6-95.8l48.6,95.8c5.9,10.8,19.4,10.8,25.2-0.2l18.4-37.6c0,0,42.8,7.6,43.6,7.6c18.4,1.1,15.3-17.1,11.8-22.1l-76.6-151.1H365
			C372.9,296.525,379.3,290.225,379.3,282.425z M193.1,461.925l-10.7-21.8c-3.7-6.6-8.2-8.4-15.2-7.7l-23.7,4.3l66.9-131.9
			l33.7,33.7c2.5,2.5,6,4,9.6,4.1L193.1,461.925z M364.5,436.725l-23.7-4.3c-6.2-1.1-12.4,2-15.2,7.7l-10.7,21.8l-45.1-89l31.2-61.5
			L364.5,436.725z M351.1,217.325v51h-51c-3.7,0-7.3,1.5-10,4.1l-36.1,36l-36.1-36c-2.6-2.6-6.2-4.1-10-4.1h-51v-51
			c0-3.7-1.5-7.3-4.1-10l-36.1-36.1l36.1-36.1c2.6-2.6,4.1-6.2,4.1-10v-51h51c3.7,0,7.3-1.5,10-4.1l36.1-36l36.1,36.1
			c2.6,2.6,6.2,4.1,10,4.1h51v51c0,3.7,1.5,7.3,4.1,10l36.1,36.1l-36.1,36.1C352.5,210.025,351.1,213.625,351.1,217.325z"/>
	</g>
</g>
<g>
	<g>
		<path d="M254,94.025c-42.6,0-77.3,34.7-77.3,77.3s34.7,77.3,77.3,77.3c42.6,0,77.3-34.7,77.3-77.3
			C331.3,128.725,296.6,94.025,254,94.025z M254,220.425c-27.1,0-49.1-22-49.1-49.1c0-27.1,22-49.1,49.1-49.1
			c27.1,0,49.1,22,49.1,49.1C303.1,198.425,281.1,220.425,254,220.425z"/>
	</g>
</g>
<g>
</g>
<g>
</g>
<g>
</g>
<g>
</g>
<g>
</g>
<g>
</g>
<g>
</g>
<g>
</g>
<g>
</g>
<g>
</g>
<g>
</g>
<g>
</g>
<g>
</g>
<g>
</g>
<g>
</g>
</svg>
