<svg  viewBox="0 0 102 120" fill="none" xmlns="http://www.w3.org/2000/svg">
<path fill="#000000" d="M101.287 30.898C101.225 27.6582 101.166 24.5976 101.166 21.6366C101.166 19.3169 99.2861 17.4363 96.9659 17.4363C79.0025 17.4363 65.3258 12.2739 53.9256 1.18953C52.2947 -0.396505 49.6995 -0.395945 48.0692 1.18953C36.6702 12.2739 22.9956 17.4363 5.03344 17.4363C2.71375 17.4363 0.833128 19.3169 0.833128 21.6366C0.833128 24.5981 0.774884 27.6599 0.71272 30.9003C0.136997 61.0506 -0.651537 102.343 49.6217 119.769C50.0675 119.923 50.5323 120.001 50.9971 120.001C51.462 120.001 51.9274 119.923 52.3726 119.769C102.65 102.342 101.862 61.049 101.287 30.898ZM50.9977 111.343C7.8818 95.6802 8.53369 61.3693 9.11222 31.0604C9.14694 29.2414 9.18054 27.4784 9.20406 25.7501C26.0277 25.04 39.481 19.9419 50.9977 9.90937C62.5155 19.9419 75.971 25.0406 92.7958 25.7501C92.8193 27.4779 92.8529 29.2397 92.8876 31.0576C93.4656 61.3676 94.1169 95.6797 50.9977 111.343Z" fill="#FCCA00"/>
<path  d="M65.4619 45.4093L45.1889 65.6811L36.538 57.0301C34.8976 55.3903 32.238 55.3903 30.5982 57.0301C28.9578 58.671 28.9578 61.3301 30.5982 62.9705L42.219 74.5913C43.0389 75.4112 44.1142 75.8212 45.1889 75.8212C46.2637 75.8212 47.3389 75.4112 48.1588 74.5913L71.4011 51.3496C73.042 49.7092 73.042 47.0496 71.4017 45.4098C69.7619 43.7695 67.1022 43.7689 65.4619 45.4093Z" fill="#FCCA00"/>
</svg>
