<svg  viewBox="0 0 120 120" fill="none" xmlns="http://www.w3.org/2000/svg">
<g clip-path="url(#clip0_1_655)">
<path fill="#000000" d="M109.453 28.3594H89.1321L86.5125 15.2618C85.8577 11.9866 82.958 9.60938 79.6179 9.60938H40.3821C37.0423 9.60938 34.1423 11.9866 33.4875 15.2618L30.8679 28.3594H10.5469C4.73133 28.3594 0 33.0907 0 38.9062V99.8438C0 105.659 4.73133 110.391 10.5469 110.391H109.453C115.269 110.391 120 105.659 120 99.8438V38.9062C120 33.0907 115.269 28.3594 109.453 28.3594ZM40.3821 16.6406H79.6179L81.9616 28.3594H38.0384L40.3821 16.6406ZM112.969 99.8438C112.969 101.782 111.392 103.359 109.453 103.359H10.5469C8.60836 103.359 7.03125 101.782 7.03125 99.8438V38.9062C7.03125 36.9677 8.60836 35.3906 10.5469 35.3906H109.453C111.392 35.3906 112.969 36.9677 112.969 38.9062V99.8438Z" fill="#FCCA00"/>
<path  d="M60 43.3594C45.6548 43.3594 33.9844 55.0298 33.9844 69.375C33.9844 83.7202 45.6548 95.3906 60 95.3906C74.3452 95.3906 86.0156 83.7202 86.0156 69.375C86.0156 55.0298 74.3452 43.3594 60 43.3594ZM60 88.3594C49.5319 88.3594 41.0156 79.8429 41.0156 69.375C41.0156 58.9071 49.5319 50.3906 60 50.3906C70.4681 50.3906 78.9844 58.9071 78.9844 69.375C78.9844 79.8429 70.4681 88.3594 60 88.3594Z" fill="#FCCA00"/>
<path fill="#000000" d="M30 43.3594H18.75C16.8084 43.3594 15.2344 44.9334 15.2344 46.875C15.2344 48.8166 16.8084 50.3906 18.75 50.3906H30C31.9416 50.3906 33.5156 48.8166 33.5156 46.875C33.5156 44.9334 31.9416 43.3594 30 43.3594Z" fill="#FCCA00"/>
</g>
<defs>
<clipPath id="clip0_1_655">
<rect width="120" height="120" fill="white"/>
</clipPath>
</defs>
</svg>
